<?xml version="1.0" encoding="UTF-8"?>
<svg width="359px" height="170px" viewBox="0 0 359 170" version="1.1" xmlns="http://www.w3.org/2000/svg" xmlns:xlink="http://www.w3.org/1999/xlink">
    <!-- Generator: Sketch 48.2 (47327) - http://www.bohemiancoding.com/sketch -->
    <title>优惠券bg</title>
    <desc>Created with Sketch.</desc>
    <defs>
        <path d="M10.9999995,124.503543 L15,124.503543 L15,123.503543 L10.9533342,123.503543 C10.4514291,118.171916 5.96291615,114 0.5,114 C0.332387046,114 0.165691379,114.003927 -1.29896094e-14,114.011695 L4.4408921e-16,3 C2.41183085e-16,1.34314575 1.34314575,-1.39730022e-16 3,-4.4408921e-16 L348,-4.4408921e-16 C349.656854,3.01547776e-14 351,1.34314575 351,3 L351,114.011695 C345.433183,114.272672 341,118.868623 341,124.5 C341,130.131377 345.433183,134.727328 351,134.988305 L351,159 C351,160.656854 349.656854,162 348,162 L3,162 C1.34314575,162 1.52104299e-14,160.656854 -4.4408921e-16,159 L-3.07379791e-16,134.988305 C0.165691379,134.996073 0.332387046,135 0.5,135 C6.29780872,135 10.9980849,130.300905 10.9999994,124.503543 Z M20,124.503543 L25,124.503543 L25,123.503543 L20,123.503543 L20,124.503543 Z M30,124.503543 L35,124.503543 L35,123.503543 L30,123.503543 L30,124.503543 Z M40,124.503543 L45,124.503543 L45,123.503543 L40,123.503543 L40,124.503543 Z M50,124.503543 L55,124.503543 L55,123.503543 L50,123.503543 L50,124.503543 Z M60,124.503543 L65,124.503543 L65,123.503543 L60,123.503543 L60,124.503543 Z M70,124.503543 L75,124.503543 L75,123.503543 L70,123.503543 L70,124.503543 Z M80,124.503543 L85,124.503543 L85,123.503543 L80,123.503543 L80,124.503543 Z M90,124.503543 L95,124.503543 L95,123.503543 L90,123.503543 L90,124.503543 Z M100,124.503543 L105,124.503543 L105,123.503543 L100,123.503543 L100,124.503543 Z M110,124.503543 L115,124.503543 L115,123.503543 L110,123.503543 L110,124.503543 Z M120,124.503543 L125,124.503543 L125,123.503543 L120,123.503543 L120,124.503543 Z M130,124.503543 L135,124.503543 L135,123.503543 L130,123.503543 L130,124.503543 Z M140,124.503543 L145,124.503543 L145,123.503543 L140,123.503543 L140,124.503543 Z M150,124.503543 L155,124.503543 L155,123.503543 L150,123.503543 L150,124.503543 Z M160,124.503543 L165,124.503543 L165,123.503543 L160,123.503543 L160,124.503543 Z M170,124.503543 L175,124.503543 L175,123.503543 L170,123.503543 L170,124.503543 Z M180,124.503543 L185,124.503543 L185,123.503543 L180,123.503543 L180,124.503543 Z M190,124.503543 L195,124.503543 L195,123.503543 L190,123.503543 L190,124.503543 Z M200,124.503543 L205,124.503543 L205,123.503543 L200,123.503543 L200,124.503543 Z M210,124.503543 L215,124.503543 L215,123.503543 L210,123.503543 L210,124.503543 Z M220,124.503543 L225,124.503543 L225,123.503543 L220,123.503543 L220,124.503543 Z M230,124.503543 L235,124.503543 L235,123.503543 L230,123.503543 L230,124.503543 Z M240,124.503543 L245,124.503543 L245,123.503543 L240,123.503543 L240,124.503543 Z M250,124.503543 L255,124.503543 L255,123.503543 L250,123.503543 L250,124.503543 Z M260,124.503543 L265,124.503543 L265,123.503543 L260,123.503543 L260,124.503543 Z M270,124.503543 L275,124.503543 L275,123.503543 L270,123.503543 L270,124.503543 Z M280,124.503543 L285,124.503543 L285,123.503543 L280,123.503543 L280,124.503543 Z M290,124.503543 L295,124.503543 L295,123.503543 L290,123.503543 L290,124.503543 Z M300,124.503543 L305,124.503543 L305,123.503543 L300,123.503543 L300,124.503543 Z M310,124.503543 L315,124.503543 L315,123.503543 L310,123.503543 L310,124.503543 Z M320,124.503543 L325,124.503543 L325,123.503543 L320,123.503543 L320,124.503543 Z M330,124.503543 L335,124.503543 L335,123.503543 L330,123.503543 L330,124.503543 Z M340,124.503543 L341,124.503543 L341,123.503543 L340,123.503543 L340,124.503543 Z" id="path-1"></path>
        <filter x="-1.9%" y="-3.4%" width="103.7%" height="108.0%" filterUnits="objectBoundingBox" id="filter-2">
            <feOffset dx="0" dy="1" in="SourceAlpha" result="shadowOffsetOuter1"></feOffset>
            <feGaussianBlur stdDeviation="2" in="shadowOffsetOuter1" result="shadowBlurOuter1"></feGaussianBlur>
            <feColorMatrix values="0 0 0 0 0.647321429   0 0 0 0 0.647321429   0 0 0 0 0.647321429  0 0 0 0.5 0" type="matrix" in="shadowBlurOuter1"></feColorMatrix>
        </filter>
    </defs>
    <g id="7商品详情页-商品（领券" stroke="none" stroke-width="1" fill="none" fill-rule="evenodd" transform="translate(-8.000000, -231.000000)">
        <g id="Group-2" transform="translate(0.000000, 167.000000)">
            <g id="优惠券" transform="translate(12.000000, 67.000000)">
                <g id="优惠券bg">
                    <use fill="black" fill-opacity="1" filter="url(#filter-2)" xlink:href="#path-1"></use>
                    <use fill="#FFFFFF" fill-rule="evenodd" xlink:href="#path-1"></use>
                </g>
            </g>
        </g>
    </g>
</svg>