<?xml version="1.0" encoding="UTF-8"?>
<svg width="12px" height="12px" viewBox="0 0 12 12" version="1.1" xmlns="http://www.w3.org/2000/svg" xmlns:xlink="http://www.w3.org/1999/xlink">
    <!-- Generator: Sketch 48.2 (47327) - http://www.bohemiancoding.com/sketch -->
    <title>关闭 icon</title>
    <desc>Created with Sketch.</desc>
    <defs></defs>
    <g id="5商品详情页-商品（选择规格" stroke="none" stroke-width="1" fill="none" fill-rule="evenodd" transform="translate(-348.000000, -188.000000)">
        <g id="选择规格" transform="translate(0.000000, 167.000000)" fill="#333333" fill-rule="nonzero">
            <g id="关闭-icon" transform="translate(348.000000, 21.000000)">
                <path d="M11.8063452,10.8927262 L6.91609524,6.00245238 L11.8062143,1.11232143 C11.8062738,1.1122619 11.8063333,1.1122381 11.8064048,1.11215476 C12.059631,0.858916667 12.059631,0.448404762 11.8064167,0.19522619 C11.5532143,-0.0579761905 11.1426905,-0.0579761905 10.8894881,0.19525 C10.8894286,0.195297619 10.889369,0.195369048 10.8893095,0.195452381 L10.8892857,0.195416667 L5.99917857,5.08553571 L1.10904762,0.195452381 C1.1089881,0.195380952 1.10892857,0.195297619 1.10886905,0.19525 C0.855654762,-0.0579761905 0.445119048,-0.0579761905 0.191916667,0.19522619 C-0.0612619048,0.448404762 -0.061297619,0.858916667 0.191928571,1.11215476 C0.192,1.11222619 0.192059524,1.1122619 0.192119048,1.11232143 L0.192119048,1.11235714 L5.08222619,6.00245238 L0.19197619,10.8927262 C0.191964286,10.8927619 0.191952381,10.8927619 0.191952381,10.8927619 C-0.0612619048,11.1459643 -0.0612619048,11.5564762 0.191952381,11.8096905 C0.445119048,12.0628452 0.855666667,12.0628452 1.10885714,11.8096905 C1.10886905,11.8096667 1.10888095,11.8096667 1.10888095,11.8096667 L5.99915476,6.91940476 L10.8894167,11.8096667 C10.8894167,11.8096667 10.8894405,11.8096667 10.8894524,11.8096905 C11.1426429,12.0628452 11.5531786,12.0628452 11.8063571,11.8096905 C12.0595952,11.5564762 12.0595952,11.1459643 11.8063571,10.8927619 C11.806369,10.8927619 11.8063571,10.8927619 11.8063333,10.8927262 L11.8063452,10.8927262 Z" id="Shape"></path>
            </g>
        </g>
    </g>
</svg>