<?xml version="1.0" encoding="UTF-8"?>
<svg width="17px" height="20px" viewBox="0 0 17 20" version="1.1" xmlns="http://www.w3.org/2000/svg" xmlns:xlink="http://www.w3.org/1999/xlink">
    <!-- Generator: Sketch 48.2 (47327) - http://www.bohemiancoding.com/sketch -->
    <title>删除icon</title>
    <desc>Created with Sketch.</desc>
    <defs></defs>
    <g id="10收货地址2" stroke="none" stroke-width="1" fill="none" fill-rule="evenodd" transform="translate(-337.000000, -196.000000)">
        <g id="Group-2" transform="translate(315.000000, 158.000000)" fill="#FFFFFF" fill-rule="nonzero">
            <g id="删除icon" transform="translate(19.000000, 37.000000)">
                <path d="M13.8729501,18.2476711 C13.5955524,18.2476711 13.3673234,17.981404 13.3675686,17.638293 L14.0395776,7.0820136 C14.0395776,6.80461581 14.3058447,6.57638687 14.6412407,6.57638687 C14.9186384,6.57638687 15.1468674,6.84265397 15.1466222,7.18576495 L14.4746132,17.7420444 C14.4746132,18.0194422 14.2083461,18.2476711 13.8729501,18.2476711 Z" id="Shape"></path>
                <path d="M8.68698923,18.2476711 C8.33178792,18.2476711 8.08532619,18.0012094 8.08557142,17.6537231 L7.41307199,7.0820136 C7.41307199,6.8228486 7.65953373,6.57638687 7.88028291,6.58262089 C8.24081712,6.46244282 8.52036177,6.70205252 8.52011654,7.07429857 L9.18638194,17.6075922 C9.30656001,17.9681265 9.06695031,18.2476711 8.68698923,18.2476711 Z" id="Shape"></path>
                <path d="M11.2799697,18.2476711 C10.9247684,18.2476711 10.6783066,18.0012094 10.6783066,17.6460081 L10.6783066,7.0820136 C10.6783066,6.72681229 10.9247684,6.48035055 11.2799697,6.48035055 C11.635171,6.48035055 11.8816327,6.72681229 11.8816327,7.0820136 L11.8816327,17.6460081 C11.8816327,18.0012094 11.635171,18.2476711 11.2799697,18.2476711 Z" id="Shape"></path>
                <path d="M14.4746132,3.88737009 L18.7708021,3.88737009 C19.1061981,3.88737009 19.3724652,4.11559904 19.3724652,4.39299683 C19.3724652,4.76407869 19.1089438,4.99465988 18.6747658,4.99465988 L17.9247096,4.99465988 L17.0669908,19.0026043 C16.9612166,20.0603464 16.2109232,20.8406516 15.2174585,20.8406516 L7.24644453,20.8406516 C6.25297992,20.8406516 5.50268652,20.0603464 5.39653646,18.9979402 L4.53919277,4.99465988 L3.78913726,4.99465988 C3.43393595,4.99465988 3.18747421,4.74819814 3.18747421,4.39299683 C3.18747421,4.13919546 3.41829207,3.9083776 3.78913726,3.79133378 L8.08532619,3.79133378 L8.08532619,2.18416162 C8.08532619,1.63688769 8.52386055,1.19835332 9.07113449,1.19835332 L13.4888049,1.19835332 C14.0360788,1.19835332 14.4746132,1.63688769 14.4746132,2.18416162 L14.4746132,3.88737009 Z M9.19261597,2.3056431 L9.19261597,3.79133378 L13.3673234,3.79133378 L13.3673234,2.3056431 L9.19261597,2.3056431 Z M16.9130019,4.99465988 L5.64780781,4.99465988 L6.59727642,18.966692 C6.69224301,19.4415249 6.96163089,19.7333618 7.34248085,19.7333618 L15.3134948,19.7333618 C15.6922057,19.7333618 15.960703,19.4447941 16.0570826,18.9746757 L16.9130019,4.99465988 Z" id="Shape"></path>
            </g>
        </g>
    </g>
</svg>