<?xml version="1.0" encoding="UTF-8"?>
<svg width="18px" height="17px" viewBox="0 0 18 17" version="1.1" xmlns="http://www.w3.org/2000/svg" xmlns:xlink="http://www.w3.org/1999/xlink">
    <!-- Generator: Sketch 48.2 (47327) - http://www.bohemiancoding.com/sketch -->
    <title>喜欢（已点击）</title>
    <desc>Created with Sketch.</desc>
    <defs></defs>
    <g id="2商品详情页-商品" stroke="none" stroke-width="1" fill="none" fill-rule="evenodd" transform="translate(-296.000000, -34.000000)">
        <g id="Group-3" fill="#FF6868" fill-rule="nonzero">
            <g id="喜欢icon1" transform="translate(294.000000, 31.000000)">
                <g id="喜欢（已点击）" transform="translate(2.000000, 3.000000)">
                    <path d="M12.7363029,0.00601336303 C11.3832962,0.00601336303 10.032294,0.53518931 9,1.5935412 C7.96770601,0.53518931 6.61670379,0.00601336303 5.2636971,0.00601336303 C3.75434298,0.00601336303 2.24699332,0.663474388 1.18262806,1.98040089 C-0.593318486,4.17928731 -0.268596882,7.41648107 1.70579065,9.4389755 L8.1922049,16.0917595 C8.41269488,16.3182628 8.70734967,16.4325167 9,16.4325167 C9.29265033,16.4325167 9.58530067,16.3182628 9.8077951,16.0917595 L16.2942094,9.4389755 C18.2685969,7.41447661 18.5933185,4.17928731 16.8173719,1.98040089 C15.7530067,0.663474388 14.245657,0.00601336303 12.7363029,0.00601336303 Z" id="Shape"></path>
                </g>
            </g>
        </g>
    </g>
</svg>