<?xml version="1.0" encoding="UTF-8"?>
<svg width="16px" height="40px" viewBox="0 0 16 40" version="1.1" xmlns="http://www.w3.org/2000/svg" xmlns:xlink="http://www.w3.org/1999/xlink">
    <!-- Generator: Sketch 48.2 (47327) - http://www.bohemiancoding.com/sketch -->
    <title>失效</title>
    <desc>Created with Sketch.</desc>
    <defs></defs>
    <g id="15购物车1" stroke="none" stroke-width="1" fill="none" fill-rule="evenodd" transform="translate(-15.000000, -635.000000)">
        <g id="Group-4-Copy-2" transform="translate(0.000000, 553.000000)" fill="#AAAAAA">
            <g id="Group-2" transform="translate(15.000000, 52.000000)">
                <g id="失效" transform="translate(0.000000, 30.000000)">
                    <path d="M8,0 L8,0 C12.418278,-8.11624501e-16 16,3.581722 16,8 L16,32 C16,36.418278 12.418278,40 8,40 L8,40 C3.581722,40 5.41083001e-16,36.418278 0,32 L0,8 C-5.41083001e-16,3.581722 3.581722,8.11624501e-16 8,0 Z M5.48,8.04 L6.15,8.3 C5.99,8.76 5.81,9.19 5.62,9.59 L7.64,9.59 L7.64,7.84 L8.38,7.84 L8.38,9.59 L11.73,9.59 L11.73,10.29 L8.38,10.29 L8.38,10.94 C8.36,11.42 8.32,11.87 8.25,12.29 L12.38,12.29 L12.38,12.98 L8.66,12.98 C9.15,14.42 10.44,15.54 12.53,16.34 L12.13,16.97 C9.95,16.03 8.59,14.76 8.05,13.14 C7.86,13.8 7.59,14.37 7.24,14.85 C6.55,15.76 5.42,16.47 3.84,16.98 L3.45,16.37 C5.01,15.85 6.11,15.18 6.73,14.35 C6.99,13.95 7.2,13.49 7.35,12.98 L3.63,12.98 L3.63,12.29 L7.5,12.29 C7.58,11.87 7.62,11.42 7.64,10.94 L7.64,10.29 L5.25,10.29 C4.89,10.88 4.5,11.38 4.07,11.78 L3.46,11.25 C4.36,10.45 5.03,9.38 5.48,8.04 Z M4.85,25.04 L5.47,25.35 C5.04,26.27 4.54,27.06 3.97,27.74 L3.39,27.32 C3.95,26.69 4.44,25.93 4.85,25.04 Z M7.48,26.9 C7.02,26.32 6.57,25.83 6.12,25.41 L6.56,24.98 C6.96,25.3 7.42,25.78 7.95,26.42 L7.48,26.9 Z M4.81,27.5 C5.22,27.82 5.61,28.16 5.99,28.51 C6.22,28.05 6.42,27.56 6.58,27.04 L7.2,27.3 C7.02,27.92 6.79,28.5 6.52,29.02 C6.94,29.43 7.34,29.85 7.72,30.29 L7.21,30.86 C6.85,30.43 6.49,30.04 6.15,29.68 C5.53,30.62 4.75,31.37 3.79,31.92 L3.35,31.28 C4.28,30.77 5.04,30.06 5.63,29.15 C5.21,28.73 4.78,28.35 4.36,28.01 L4.81,27.5 Z M5.84,22.76 C5.99,23.1 6.14,23.47 6.29,23.89 L8.17,23.89 L8.17,24.58 L3.54,24.58 L3.54,23.89 L5.59,23.89 C5.44,23.53 5.27,23.19 5.09,22.88 L5.84,22.76 Z M9.49,25.15 C9.41,25.39 9.34,25.63 9.26,25.85 C9.5,26.87 9.81,27.76 10.19,28.52 C10.67,27.54 10.94,26.42 10.98,25.15 L9.49,25.15 Z M9.8,29.2 C9.43,28.48 9.12,27.68 8.87,26.8 C8.69,27.16 8.49,27.48 8.29,27.78 L7.83,27.23 C8.53,26.13 9.01,24.65 9.25,22.78 L9.97,22.9 C9.89,23.46 9.79,23.97 9.68,24.45 L12.49,24.45 L12.49,25.15 L11.64,25.15 C11.58,26.74 11.23,28.1 10.58,29.24 C11.15,30.16 11.84,30.87 12.64,31.36 L12.22,31.99 C11.42,31.48 10.74,30.77 10.18,29.87 C9.55,30.73 8.73,31.45 7.73,32.02 L7.32,31.37 C8.38,30.81 9.21,30.09 9.8,29.2 Z" id="Rectangle"></path>
                </g>
            </g>
        </g>
    </g>
</svg>