<?xml version="1.0" encoding="UTF-8"?>
<svg width="62px" height="62px" viewBox="0 0 62 62" version="1.1" xmlns="http://www.w3.org/2000/svg" xmlns:xlink="http://www.w3.org/1999/xlink">
    <!-- Generator: Sketch 48.2 (47327) - http://www.bohemiancoding.com/sketch -->
    <title>已过期icon</title>
    <desc>Created with Sketch.</desc>
    <defs></defs>
    <g id="13优惠券-优惠码" stroke="none" stroke-width="1" fill="none" fill-rule="evenodd" transform="translate(-286.000000, -502.000000)">
        <g id="已过期-copy-2" transform="translate(12.000000, 487.000000)" fill="#D6D6D6">
            <g id="已过期icon" transform="translate(305.000000, 46.000000) rotate(-30.000000) translate(-305.000000, -46.000000) translate(274.000000, 15.000000)">
                <path d="M31,61.3 C14.2657721,61.3 0.7,47.7342279 0.7,31 C0.7,14.2657721 14.2657721,0.7 31,0.7 C47.7342279,0.7 61.3,14.2657721 61.3,31 C61.3,47.7342279 47.7342279,61.3 31,61.3 Z M31,60.7 C47.4028571,60.7 60.7,47.4028571 60.7,31 C60.7,14.5971429 47.4028571,1.3 31,1.3 C14.5971429,1.3 1.3,14.5971429 1.3,31 C1.3,47.4028571 14.5971429,60.7 31,60.7 Z" id="Oval" fill-rule="nonzero"></path>
                <path d="M31,57.3 C16.4749111,57.3 4.7,45.5250889 4.7,31 C4.7,16.4749111 16.4749111,4.7 31,4.7 C45.5250889,4.7 57.3,16.4749111 57.3,31 C57.3,45.5250889 45.5250889,57.3 31,57.3 Z M31,56.7 C45.1937181,56.7 56.7,45.1937181 56.7,31 C56.7,16.8062819 45.1937181,5.3 31,5.3 C16.8062819,5.3 5.3,16.8062819 5.3,31 C5.3,45.1937181 16.8062819,56.7 31,56.7 Z" id="Oval" fill-rule="nonzero"></path>
                <path d="M32.9908953,9.44510562 C32.9690134,9.37765393 32.9105655,9.32846742 32.8404569,9.3184 L31.684313,9.1505618 L31.1672081,8.1038382 C31.1358248,8.04026966 31.0710428,8 31.0000704,8 C30.929098,8 30.864316,8.04026966 30.8329327,8.1038382 L30.3158278,9.1505618 L29.1595399,9.3184 C29.0892873,9.32861124 29.0309835,9.37765393 29.0091015,9.44510562 C28.9872196,9.5125573 29.0055025,9.5864809 29.0563205,9.63595506 L29.8930169,10.4506966 L29.6955035,11.6011146 C29.6835548,11.6710112 29.7122029,11.741627 29.769643,11.7833348 C29.8270831,11.8250427 29.9030941,11.8305079 29.9660047,11.7974292 L31.0002144,11.2542202 L32.0342801,11.7974292 C32.0614886,11.8116674 32.0912883,11.8188584 32.1209441,11.8188584 C32.1595254,11.8188584 32.1981068,11.8069213 32.2304978,11.7833348 C32.2879379,11.741627 32.316586,11.6710112 32.3046373,11.6011146 L32.1071239,10.4506966 L32.9438203,9.63595506 C32.9944943,9.5864809 33.0127772,9.5125573 32.9908953,9.44510562 Z" id="Shape" fill-rule="nonzero"></path>
                <path d="M32.9908953,51.4451056 C32.9690134,51.3776539 32.9105655,51.3284674 32.8404569,51.3184 L31.684313,51.1505618 L31.1672081,50.1038382 C31.1358248,50.0402697 31.0710428,50 31.0000704,50 C30.929098,50 30.864316,50.0402697 30.8329327,50.1038382 L30.3158278,51.1505618 L29.1595399,51.3184 C29.0892873,51.3286112 29.0309835,51.3776539 29.0091015,51.4451056 C28.9872196,51.5125573 29.0055025,51.5864809 29.0563205,51.6359551 L29.8930169,52.4506966 L29.6955035,53.6011146 C29.6835548,53.6710112 29.7122029,53.741627 29.769643,53.7833348 C29.8270831,53.8250427 29.9030941,53.8305079 29.9660047,53.7974292 L31.0002144,53.2542202 L32.0342801,53.7974292 C32.0614886,53.8116674 32.0912883,53.8188584 32.1209441,53.8188584 C32.1595254,53.8188584 32.1981068,53.8069213 32.2304978,53.7833348 C32.2879379,53.741627 32.316586,53.6710112 32.3046373,53.6011146 L32.1071239,52.4506966 L32.9438203,51.6359551 C32.9944943,51.5864809 33.0127772,51.5125573 32.9908953,51.4451056 Z" id="Shape-Copy-3" fill-rule="nonzero"></path>
                <path d="M18.9908953,14.4451056 C18.9690134,14.3776539 18.9105655,14.3284674 18.8404569,14.3184 L17.684313,14.1505618 L17.1672081,13.1038382 C17.1358248,13.0402697 17.0710428,13 17.0000704,13 C16.929098,13 16.864316,13.0402697 16.8329327,13.1038382 L16.3158278,14.1505618 L15.1595399,14.3184 C15.0892873,14.3286112 15.0309835,14.3776539 15.0091015,14.4451056 C14.9872196,14.5125573 15.0055025,14.5864809 15.0563205,14.6359551 L15.8930169,15.4506966 L15.6955035,16.6011146 C15.6835548,16.6710112 15.7122029,16.741627 15.769643,16.7833348 C15.8270831,16.8250427 15.9030941,16.8305079 15.9660047,16.7974292 L17.0002144,16.2542202 L18.0342801,16.7974292 C18.0614886,16.8116674 18.0912883,16.8188584 18.1209441,16.8188584 C18.1595254,16.8188584 18.1981068,16.8069213 18.2304978,16.7833348 C18.2879379,16.741627 18.316586,16.6710112 18.3046373,16.6011146 L18.1071239,15.4506966 L18.9438203,14.6359551 C18.9944943,14.5864809 19.0127772,14.5125573 18.9908953,14.4451056 Z" id="Shape-Copy" fill-rule="nonzero"></path>
                <path d="M18.9908953,46.4451056 C18.9690134,46.3776539 18.9105655,46.3284674 18.8404569,46.3184 L17.684313,46.1505618 L17.1672081,45.1038382 C17.1358248,45.0402697 17.0710428,45 17.0000704,45 C16.929098,45 16.864316,45.0402697 16.8329327,45.1038382 L16.3158278,46.1505618 L15.1595399,46.3184 C15.0892873,46.3286112 15.0309835,46.3776539 15.0091015,46.4451056 C14.9872196,46.5125573 15.0055025,46.5864809 15.0563205,46.6359551 L15.8930169,47.4506966 L15.6955035,48.6011146 C15.6835548,48.6710112 15.7122029,48.741627 15.769643,48.7833348 C15.8270831,48.8250427 15.9030941,48.8305079 15.9660047,48.7974292 L17.0002144,48.2542202 L18.0342801,48.7974292 C18.0614886,48.8116674 18.0912883,48.8188584 18.1209441,48.8188584 C18.1595254,48.8188584 18.1981068,48.8069213 18.2304978,48.7833348 C18.2879379,48.741627 18.316586,48.6710112 18.3046373,48.6011146 L18.1071239,47.4506966 L18.9438203,46.6359551 C18.9944943,46.5864809 19.0127772,46.5125573 18.9908953,46.4451056 Z" id="Shape-Copy-4" fill-rule="nonzero"></path>
                <path d="M46.9908953,46.4451056 C46.9690134,46.3776539 46.9105655,46.3284674 46.8404569,46.3184 L45.684313,46.1505618 L45.1672081,45.1038382 C45.1358248,45.0402697 45.0710428,45 45.0000704,45 C44.929098,45 44.864316,45.0402697 44.8329327,45.1038382 L44.3158278,46.1505618 L43.1595399,46.3184 C43.0892873,46.3286112 43.0309835,46.3776539 43.0091015,46.4451056 C42.9872196,46.5125573 43.0055025,46.5864809 43.0563205,46.6359551 L43.8930169,47.4506966 L43.6955035,48.6011146 C43.6835548,48.6710112 43.7122029,48.741627 43.769643,48.7833348 C43.8270831,48.8250427 43.9030941,48.8305079 43.9660047,48.7974292 L45.0002144,48.2542202 L46.0342801,48.7974292 C46.0614886,48.8116674 46.0912883,48.8188584 46.1209441,48.8188584 C46.1595254,48.8188584 46.1981068,48.8069213 46.2304978,48.7833348 C46.2879379,48.741627 46.316586,48.6710112 46.3046373,48.6011146 L46.1071239,47.4506966 L46.9438203,46.6359551 C46.9944943,46.5864809 47.0127772,46.5125573 46.9908953,46.4451056 Z" id="Shape-Copy-5" fill-rule="nonzero"></path>
                <path d="M46.9908953,14.4451056 C46.9690134,14.3776539 46.9105655,14.3284674 46.8404569,14.3184 L45.684313,14.1505618 L45.1672081,13.1038382 C45.1358248,13.0402697 45.0710428,13 45.0000704,13 C44.929098,13 44.864316,13.0402697 44.8329327,13.1038382 L44.3158278,14.1505618 L43.1595399,14.3184 C43.0892873,14.3286112 43.0309835,14.3776539 43.0091015,14.4451056 C42.9872196,14.5125573 43.0055025,14.5864809 43.0563205,14.6359551 L43.8930169,15.4506966 L43.6955035,16.6011146 C43.6835548,16.6710112 43.7122029,16.741627 43.769643,16.7833348 C43.8270831,16.8250427 43.9030941,16.8305079 43.9660047,16.7974292 L45.0002144,16.2542202 L46.0342801,16.7974292 C46.0614886,16.8116674 46.0912883,16.8188584 46.1209441,16.8188584 C46.1595254,16.8188584 46.1981068,16.8069213 46.2304978,16.7833348 C46.2879379,16.741627 46.316586,16.6710112 46.3046373,16.6011146 L46.1071239,15.4506966 L46.9438203,14.6359551 C46.9944943,14.5864809 47.0127772,14.5125573 46.9908953,14.4451056 Z" id="Shape-Copy-2" fill-rule="nonzero"></path>
                <path d="M23.02,30.632 L15.484,30.632 L15.484,34.172 C15.484,34.7 15.76,34.976 16.312,34.976 L22.336,34.976 C22.624,34.976 22.864,34.904 23.044,34.76 C23.284,34.544 23.44,33.776 23.512,32.456 L24.352,32.72 C24.232,34.208 24.028,35.096 23.74,35.408 C23.476,35.66 23.08,35.792 22.576,35.816 L16.072,35.816 C15.1,35.816 14.62,35.312 14.62,34.328 L14.62,28.028 L15.484,28.028 L15.484,29.804 L22.144,29.804 L22.144,26.672 L14.14,26.672 L14.14,25.832 L23.02,25.832 L23.02,30.632 Z M26.476,25.364 C27.292,26 27.976,26.636 28.528,27.26 L27.904,27.896 C27.412,27.284 26.74,26.624 25.876,25.928 L26.476,25.364 Z M33.772,35.984 C33.088,35.984 32.344,35.972 31.54,35.96 C30.724,35.948 30.064,35.876 29.572,35.744 C29.068,35.6 28.624,35.3 28.24,34.868 C28.072,34.664 27.904,34.568 27.748,34.568 C27.46,34.568 26.968,35.12 26.296,36.248 L25.648,35.672 C26.296,34.64 26.86,34.016 27.364,33.8 L27.364,30.164 L25.636,30.164 L25.636,29.348 L28.192,29.348 L28.192,33.848 C28.288,33.92 28.396,34.004 28.504,34.124 C28.816,34.46 29.14,34.712 29.488,34.88 C29.872,35.036 30.448,35.12 31.192,35.144 C31.852,35.156 32.68,35.168 33.664,35.168 C34.192,35.168 34.72,35.156 35.272,35.156 C35.812,35.144 36.232,35.132 36.52,35.108 L36.304,35.984 L33.772,35.984 Z M33.412,34.376 L31.708,34.376 L31.516,33.548 C32.068,33.584 32.608,33.608 33.112,33.608 C33.448,33.608 33.628,33.44 33.628,33.116 L33.628,28.016 L29.092,28.016 L29.092,27.164 L33.628,27.164 L33.628,25.22 L34.504,25.22 L34.504,27.164 L36.28,27.164 L36.28,28.016 L34.504,28.016 L34.504,33.32 C34.504,34.016 34.132,34.376 33.412,34.376 Z M30.4,29.084 C31.168,29.972 31.756,30.752 32.164,31.424 L31.468,31.904 C31.036,31.184 30.46,30.392 29.728,29.516 L30.4,29.084 Z M38.5,25.232 L39.34,25.232 L39.34,26.576 L41.68,26.576 L41.68,25.256 L42.52,25.256 L42.52,26.576 L43.24,26.576 L43.24,27.38 L42.52,27.38 L42.52,32.456 L43.3,32.456 L43.3,33.272 L37.624,33.272 L37.624,32.456 L38.5,32.456 L38.5,27.38 L37.756,27.38 L37.756,26.576 L38.5,26.576 L38.5,25.232 Z M39.34,32.456 L41.68,32.456 L41.68,31.28 L39.34,31.28 L39.34,32.456 Z M41.68,27.38 L39.34,27.38 L39.34,28.58 L41.68,28.58 L41.68,27.38 Z M39.34,30.524 L41.68,30.524 L41.68,29.336 L39.34,29.336 L39.34,30.524 Z M41.464,33.584 C42.028,34.304 42.46,34.94 42.76,35.468 C43.552,34.352 43.948,32.948 43.972,31.268 L43.972,25.652 L47.956,25.652 L47.956,35.06 C47.956,35.744 47.596,36.092 46.9,36.092 L45.628,36.092 L45.388,35.24 C45.832,35.264 46.24,35.288 46.624,35.288 C46.936,35.288 47.092,35.108 47.092,34.748 L47.092,32.288 L44.764,32.288 C44.596,33.872 44.116,35.18 43.324,36.236 L42.664,35.624 C42.688,35.6 42.7,35.576 42.712,35.552 L42.076,36.008 C41.764,35.396 41.332,34.724 40.792,34.004 L41.464,33.584 Z M39.124,33.572 L39.82,33.908 C39.364,34.772 38.836,35.528 38.236,36.164 L37.552,35.672 C38.152,35.084 38.68,34.388 39.124,33.572 Z M44.824,29.36 L44.824,31.196 C44.824,31.304 44.812,31.4 44.812,31.496 L47.092,31.496 L47.092,29.36 L44.824,29.36 Z M47.092,28.568 L47.092,26.468 L44.824,26.468 L44.824,28.568 L47.092,28.568 Z" id="已过期"></path>
                <path d="M19.369842,38.8700119 C19.308547,38.7781226 19.3333486,38.6539421 19.4252379,38.592647 C19.5171273,38.5313519 19.6413078,38.5561535 19.7026028,38.6480429 C22.2466901,42.4619641 26.5203496,44.8 31.191231,44.8 C36.004095,44.8 40.3902225,42.3166996 42.8971238,38.3118888 C42.9557314,38.2182624 43.0791413,38.189874 43.1727677,38.2484816 C43.2663941,38.3070891 43.2947824,38.4304991 43.2361749,38.5241254 C40.6568917,42.6445671 36.1433604,45.2 31.191231,45.2 C26.3852205,45.2 21.9873608,42.7940165 19.369842,38.8700119 Z M43.5437677,23.9911605 C43.5983653,24.0871805 43.5647858,24.2092802 43.4687658,24.2638778 C43.3727458,24.3184753 43.2506461,24.2848958 43.1960485,24.1888758 C40.759326,19.9034451 36.2116368,17.2 31.191231,17.2 C26.1618848,17.2 21.6073146,19.9131355 19.1740392,24.2106844 C19.1196164,24.3068036 18.9975781,24.3406053 18.9014589,24.2861825 C18.8053397,24.2317597 18.771538,24.1097214 18.8259608,24.0136022 C21.3295395,19.5918866 26.0163099,16.8 31.191231,16.8 C36.356951,16.8 41.0366446,19.5819171 43.5437677,23.9911605 Z" id="Oval" fill-rule="nonzero"></path>
            </g>
        </g>
    </g>
</svg>