<?xml version="1.0" encoding="UTF-8"?>
<svg width="24px" height="24px" viewBox="0 0 24 24" version="1.1" xmlns="http://www.w3.org/2000/svg" xmlns:xlink="http://www.w3.org/1999/xlink">
    <!-- Generator: Sketch 48.2 (47327) - http://www.bohemiancoding.com/sketch -->
    <title>微信支付</title>
    <desc>Created with Sketch.</desc>
    <defs></defs>
    <g id="14在线支付" stroke="none" stroke-width="1" fill="none" fill-rule="evenodd" transform="translate(-15.000000, -232.000000)">
        <g id="Group-Copy-2" transform="translate(15.000000, 232.000000)" fill="#3DBB61" fill-rule="nonzero">
            <g id="微信支付">
                <path d="M13.581063,11.9919607 C13.3077267,11.9919607 13.0343904,12.2465386 13.0343904,12.5600715 C13.0343904,12.8146494 13.3077267,13.0692273 13.581063,13.0692273 C13.9910674,13.0692273 14.2858419,12.8146494 14.2858419,12.5600715 C14.2858419,12.2465386 13.9937472,11.9919607 13.581063,11.9919607 Z M11.7829388,9.35238946 C12.2143814,9.35238946 12.4877177,9.07905315 12.4877177,8.66904868 C12.4877177,8.23760607 12.2143814,7.98570791 11.7829388,7.98570791 C11.3729343,7.98570791 10.9816883,8.24028584 10.9816883,8.66904868 C10.9816883,9.07905315 11.3729343,9.35238946 11.7829388,9.35238946 Z M12,0 C5.37293435,0 0,5.37293435 0,12 C0,18.6270657 5.37293435,24 12,24 C18.6270657,24 24,18.6270657 24,12 C24,5.37293435 18.6270657,5.71226853e-16 12,0 Z M9.73023671,15.0415364 C9.00669942,15.0415364 8.47878517,14.9236266 7.79544439,14.7280036 L5.82045556,15.7248772 L6.38856632,14.0446628 C5.00044663,13.0665476 4.1804377,11.8365342 4.1804377,10.3305047 C4.1804377,7.67217508 6.68334078,5.63823135 9.73291648,5.63823135 C12.4314426,5.63823135 14.8351943,7.24073247 15.3041536,9.51049576 C15.1085306,9.47029924 14.9316659,9.45154087 14.7762394,9.45154087 C12.1179098,9.45154087 10.0652077,11.4452881 10.0652077,13.8517195 C10.0652077,14.261724 10.1241626,14.6342117 10.2206342,15.0254578 C10.0625279,15.0415364 9.88834301,15.0415364 9.73023671,15.0415364 Z M17.88477,16.9575703 L18.2760161,18.3644484 L16.7914247,17.5230013 C16.223314,17.6409111 15.6766414,17.815096 15.1112104,17.815096 C12.4903975,17.815096 10.418937,16.0169719 10.418937,13.7874051 C10.418937,11.5578383 12.4903975,9.75971416 15.1112104,9.75971416 C17.5953551,9.75971416 19.8222421,11.5578383 19.8222421,13.7874051 C19.8195623,15.0415364 18.9781152,16.1563198 17.88477,16.9575703 Z M7.91335418,7.98302814 C7.50334971,7.98302814 7.0719071,8.23760607 7.0719071,8.66636891 C7.0719071,9.07637338 7.50066994,9.34970969 7.91335418,9.34970969 C8.30460027,9.34970969 8.6181331,9.07637338 8.6181331,8.66636891 C8.61545333,8.23760607 8.30460027,7.98302814 7.91335418,7.98302814 Z M16.6520768,11.9919607 C16.3599821,11.9919607 16.1054042,12.2465386 16.1054042,12.5600715 C16.1054042,12.8146494 16.3599821,13.0692273 16.6520768,13.0692273 C17.0433229,13.0692273 17.3354176,12.8146494 17.3354176,12.5600715 C17.3354176,12.2465386 17.0433229,11.9919607 16.6520768,11.9919607 Z" id="Shape"></path>
            </g>
        </g>
    </g>
</svg>