<?xml version="1.0" encoding="UTF-8"?>
<svg width="82px" height="68px" viewBox="0 0 82 68" version="1.1" xmlns="http://www.w3.org/2000/svg" xmlns:xlink="http://www.w3.org/1999/xlink">
    <!-- Generator: Sketch 48.2 (47327) - http://www.bohemiancoding.com/sketch -->
    <title>抢光了bg1</title>
    <desc>Created with Sketch.</desc>
    <defs></defs>
    <g id="1疯抢" stroke="none" stroke-width="1" fill="none" fill-rule="evenodd" transform="translate(-49.000000, -351.000000)">
        <g id="Group-4-Copy" transform="translate(15.000000, 310.000000)">
            <g id="Bitmap">
                <g id="抢光了bg1" transform="translate(75.000000, 75.000000) rotate(-30.000000) translate(-75.000000, -75.000000) translate(35.000000, 42.000000)">
                    <g id="Group-5" transform="translate(7.164179, 0.000000)" stroke="#35383D">
                        <path d="M2.23063151,44.7560806 C7.00198811,56.9975704 18.9059355,65.6716418 32.8358209,65.6716418 C46.8346603,65.6716418 58.7874551,56.9114832 63.5113412,44.5740298 M63.5352258,21.1601842 C58.8278437,8.78978861 46.8583149,0 32.8358209,0 C21.1376394,0 10.8682457,6.11736819 5.05210651,15.327638 C3.89377163,17.1619436 2.91207152,19.1189267 2.13089787,21.1746956" id="Oval"></path>
                        <path d="M53.4629061,20.9654874 C53.3890942,20.8375008 53.3141253,20.7102654 53.2380138,20.5837957 C49.0757019,13.667549 41.4960504,9.04104478 32.8358209,9.04104478 C24.1009795,9.04104478 16.4654156,13.7476114 12.3268097,20.7630642 C12.2367787,20.915678 12.1484025,21.0693845 12.0617059,21.2241589 M12.151477,44.6063125 C12.2818174,44.8348675 12.4158367,45.0610528 12.5534543,45.2847877 C16.7403825,52.0917791 24.2580528,56.630597 32.8358209,56.630597 C41.5199211,56.630597 49.1174782,51.978553 53.2723544,45.0306028 C53.3364964,44.923342 53.399818,44.8155339 53.4623104,44.7071874" id="Oval"></path>
                    </g>
                    <rect id="Rectangle-3" stroke="#35383D" x="0.5" y="21.0522388" width="79" height="23.5671642"></rect>
                    <text id="抢光了" font-family="PingFangSC-Regular, PingFang SC" font-size="15" font-weight="normal" fill="#35383D">
                        <tspan x="17.5" y="38.3358209">抢光了</tspan>
                    </text>
                </g>
            </g>
        </g>
    </g>
</svg>