<?xml version="1.0" encoding="UTF-8"?>
<svg width="164px" height="133px" viewBox="0 0 164 133" version="1.1" xmlns="http://www.w3.org/2000/svg" xmlns:xlink="http://www.w3.org/1999/xlink">
    <!-- Generator: Sketch 48.2 (47327) - http://www.bohemiancoding.com/sketch -->
    <title>抢光了bg2</title>
    <desc>Created with Sketch.</desc>
    <defs></defs>
    <g id="3商品详情页-商品（疯抢商品" stroke="none" stroke-width="1" fill="none" fill-rule="evenodd" transform="translate(-106.000000, -185.000000)">
        <g id="pic" transform="translate(0.000000, 64.000000)">
            <g id="抢光了bg2" transform="translate(188.000000, 188.000000) rotate(-30.000000) translate(-188.000000, -188.000000) translate(108.000000, 122.000000)">
                <g id="Group-5" transform="translate(14.328358, 0.000000)" stroke="#35383D">
                    <path d="M4.46126303,89.5121612 C14.0039762,113.995141 37.8118711,131.343284 65.6716418,131.343284 C93.6693206,131.343284 117.57491,113.822966 127.022682,89.1480597 M127.070452,42.3203684 C117.655687,17.5795772 93.7166297,0 65.6716418,0 C42.2752787,0 21.7364914,12.2347364 10.104213,30.6552761 C7.78754327,34.3238873 5.82414305,38.2378535 4.26179574,42.3493912" id="Oval"></path>
                    <path d="M106.925812,41.9309748 C106.778188,41.6750015 106.628251,41.4205309 106.476028,41.1675915 C98.1514038,27.335098 82.9921007,18.0820896 65.6716418,18.0820896 C48.201959,18.0820896 32.9308313,27.4952228 24.6536194,41.5261284 C24.4735574,41.831356 24.2968051,42.138769 24.1234119,42.4483178 M24.302954,89.212625 C24.5636347,89.669735 24.8316733,90.1221056 25.1069085,90.5695753 C33.480765,104.183558 48.5161057,113.261194 65.6716418,113.261194 C83.0398422,113.261194 98.2349565,103.957106 106.544709,90.0612057 C106.672993,89.8466839 106.799636,89.6310678 106.924621,89.4143747" id="Oval"></path>
                </g>
                <rect id="Rectangle-3" stroke="#35383D" x="0.5" y="41.6044776" width="159" height="48.1343284"></rect>
                <path d="M53.54,52.4316418 L55.49,52.4316418 C57.08,56.0016418 59.81,59.1216418 63.71,61.8216418 L62.54,63.6216418 C58.94,61.1616418 56.24,58.1616418 54.5,54.5916418 C53.03,57.5316418 51.29,59.9916418 49.25,61.9716418 L59.99,61.9716418 L59.99,69.4116418 C59.96,71.0616418 59.12,71.9316418 57.5,72.0216418 C56.36,72.0216418 55.28,71.9616418 54.26,71.9016418 L53.72,69.9216418 C54.8,70.0116418 55.82,70.0716418 56.75,70.0716418 C57.5,70.0716418 57.89,69.6216418 57.89,68.7816418 L57.89,63.8916418 L51.17,63.8916418 L51.17,75.6216418 C51.17,76.6416418 51.65,77.1516418 52.61,77.1516418 L58.31,77.1516418 C59.6,77.1516418 60.41,76.8816418 60.74,76.3416418 C61.04,75.7116418 61.31,74.4816418 61.49,72.6816418 L63.5,73.3416418 C63.23,76.0716418 62.78,77.7516418 62.18,78.3816418 C61.61,78.8916418 60.5,79.1616418 58.88,79.1616418 L51.8,79.1616418 C49.94,79.1616418 49.01,78.2016418 49.01,76.3416418 L49.01,62.2116418 C48.2,62.9316418 47.39,63.5916418 46.61,64.1616418 L45.47,62.3616418 C48.95,59.8116418 51.62,56.5116418 53.54,52.4316418 Z M45.95,64.0416418 L45.95,66.2016418 C44.87,66.7716418 43.82,67.2816418 42.74,67.7616418 L42.74,76.6416418 C42.74,78.4416418 41.84,79.3416418 40.07,79.3416418 L37.43,79.3416418 L36.98,77.2716418 C37.79,77.3316418 38.57,77.3916418 39.32,77.3916418 C40.13,77.3916418 40.55,76.9416418 40.55,76.0716418 L40.55,68.6916418 C39.23,69.2016418 37.91,69.6816418 36.59,70.1016418 L36.05,68.0616418 C37.61,67.6716418 39.11,67.1916418 40.55,66.6216418 L40.55,59.9916418 L36.65,59.9916418 L36.65,57.9216418 L40.55,57.9216418 L40.55,52.2516418 L42.74,52.2516418 L42.74,57.9216418 L45.65,57.9216418 L45.65,59.9916418 L42.74,59.9916418 L42.74,65.6916418 C43.82,65.1816418 44.9,64.6416418 45.95,64.0416418 Z M78.89,52.1916418 L81.11,52.1916418 L81.11,63.3216418 L93.11,63.3216418 L93.11,65.4516418 L84.5,65.4516418 L84.5,75.5016418 C84.5,76.4016418 84.92,76.8516418 85.76,76.8516418 L89.39,76.8516418 C90.05,76.8516418 90.53,76.6416418 90.83,76.2216418 C91.19,75.6816418 91.43,74.1516418 91.55,71.5716418 L93.62,72.2316418 C93.41,75.4116418 92.99,77.3316418 92.39,77.9916418 C91.85,78.5916418 90.98,78.8916418 89.78,78.8916418 L85.1,78.8916418 C83.24,78.8916418 82.34,77.9016418 82.34,75.9516418 L82.34,65.4516418 L77.27,65.4516418 L77.27,65.6616418 C77.18,69.4116418 76.37,72.4116418 74.84,74.6916418 C73.34,76.7916418 70.88,78.4116418 67.49,79.5816418 L66.26,77.6616418 C69.56,76.5216418 71.84,75.0516418 73.16,73.1916418 C74.36,71.2716418 75.02,68.7516418 75.08,65.6616418 L75.08,65.4516418 L66.92,65.4516418 L66.92,63.3216418 L78.89,63.3216418 L78.89,52.1916418 Z M88.85,53.6316418 L90.86,54.5916418 C89.84,57.0516418 88.49,59.4516418 86.84,61.7616418 L84.89,60.7716418 C86.54,58.3716418 87.86,55.9716418 88.85,53.6316418 Z M71.24,53.9016418 C72.71,56.0016418 74.09,58.2816418 75.41,60.7716418 L73.4,61.7616418 C72.08,59.1816418 70.67,56.9016418 69.2,54.8616418 L71.24,53.9016418 Z M109.37,62.1516418 C112.43,60.4116418 115.31,58.3716418 118.07,56.0316418 L98.33,56.0316418 L98.33,53.9316418 L121.01,53.9316418 L121.01,56.0316418 C118.22,58.5516418 115.07,60.9516418 111.56,63.2316418 L111.56,76.6416418 C111.56,78.5016418 110.6,79.4316418 108.74,79.4316418 C106.94,79.4316418 105.35,79.3716418 104,79.3116418 L103.4,77.2116418 C104.87,77.3316418 106.46,77.3916418 108.14,77.3916418 C108.95,77.3916418 109.37,77.0016418 109.37,76.2516418 L109.37,62.1516418 Z" id="抢光了" fill="#35383D"></path>
            </g>
        </g>
    </g>
</svg>