<?xml version="1.0" encoding="UTF-8"?>
<svg width="26px" height="22px" viewBox="0 0 26 22" version="1.1" xmlns="http://www.w3.org/2000/svg" xmlns:xlink="http://www.w3.org/1999/xlink">
    <!-- Generator: Sketch 48.2 (47327) - http://www.bohemiancoding.com/sketch -->
    <title>拍照icon</title>
    <desc>Created with Sketch.</desc>
    <defs></defs>
    <g id="39评价-1" stroke="none" stroke-width="1" fill="none" fill-rule="evenodd" transform="translate(-42.000000, -246.000000)">
        <g id="Group" transform="translate(15.000000, 217.000000)" fill="#C8C8C8" fill-rule="nonzero">
            <g id="拍照icon" transform="translate(27.000000, 29.000000)">
                <path d="M24.1428571,3.66666671 C25.1642857,3.66666671 26,4.49166671 26,5.50000005 L26,20.1666667 C26,21.175 25.1642857,22 24.1428571,22 L1.85714286,22 C0.835714285,22 0,21.175 0,20.1666667 L0,5.50000005 C0,4.49166671 0.835714285,3.66666671 1.85714286,3.66666671 L5.73346429,3.66666671 C6.45877097,3.66662231 7.11768171,3.24974595 7.42067858,2.5992084 L8.13428571,1.0674584 C8.43709973,0.416763856 9.09612521,-0.000185103804 9.8215,6.16480851e-08 L16.4371071,6.16480851e-08 C17.1624138,4.44668067e-05 17.8213246,0.416920839 18.1243214,1.0674584 L18.8379286,2.5992084 C19.1409254,3.24974594 19.7998362,3.6666223 20.5251428,3.66666671 L24.1428571,3.66666671 Z M6.50000001,8.25000004 C7.01283585,8.25000004 7.42857145,7.83959439 7.42857145,7.33333337 C7.42857145,6.82707235 7.01283585,6.4166667 6.50000001,6.4166667 L3.71428573,6.4166667 C3.20144989,6.4166667 2.7857143,6.82707235 2.7857143,7.33333337 C2.7857143,7.83959439 3.20144989,8.25000004 3.71428573,8.25000004 L6.50000001,8.25000004 Z M13,17.4166667 C15.5600714,17.4166667 17.6428571,15.3605834 17.6428571,12.8333334 C17.6428571,10.3060834 15.5600714,8.25045838 13,8.25045838 C10.4399286,8.25045838 8.35714285,10.3060834 8.35714285,12.8333334 C8.35714285,15.3605833 10.4399286,17.4166667 13,17.4166667 Z M10.2179129,12.8950962 C10.2179129,11.3763131 11.4651197,10.1450962 13.0036272,10.1450962 C14.5421347,10.1450962 15.7893415,11.3763131 15.7893415,12.8950962 C15.7893415,14.4138792 14.5421347,15.6450961 13.0036272,15.6450961 C11.4651197,15.6450961 10.2179129,14.4138792 10.2179129,12.8950962 Z" id="Combined-Shape"></path>
            </g>
        </g>
    </g>
</svg>