<?xml version="1.0" encoding="UTF-8"?>
<svg width="24px" height="24px" viewBox="0 0 24 24" version="1.1" xmlns="http://www.w3.org/2000/svg" xmlns:xlink="http://www.w3.org/1999/xlink">
    <!-- Generator: Sketch 48.2 (47327) - http://www.bohemiancoding.com/sketch -->
    <title>支付宝</title>
    <desc>Created with Sketch.</desc>
    <defs></defs>
    <g id="14在线支付" stroke="none" stroke-width="1" fill="none" fill-rule="evenodd" transform="translate(-15.000000, -177.000000)">
        <g id="Group-Copy-2" transform="translate(15.000000, 177.000000)" fill="#4493FF" fill-rule="nonzero">
            <g id="Group-Copy-4">
                <g id="支付宝">
                    <path d="M5.40010434,13.5125739 C5.1168,13.7405739 4.81314783,14.0734435 4.72497391,14.4965739 C4.60497391,15.0746609 4.69993043,15.7983131 5.25766957,16.3659652 C5.93332174,17.0541391 6.96010434,17.2424869 7.4035826,17.2748348 C8.60827826,17.3619652 9.89227826,16.7645739 10.8601043,16.0831826 C11.2394087,15.8155304 11.8889739,15.2781391 12.5098435,14.4490957 C11.1183652,13.7306609 9.38149566,12.9360522 7.52462609,13.0137913 C6.57610434,13.0534435 5.8968,13.2501391 5.40010434,13.5125739 Z M23.0452174,16.6893913 C23.6593043,15.2478261 24,13.6633043 24,12 C24,5.38330434 18.6172174,0 12,0 C5.3827826,0 0,5.38330434 0,12 C0,18.6172174 5.3827826,24 12,24 C15.9933913,24 19.5349565,22.0377391 21.7179131,19.0283478 C19.6554783,18.0031304 16.2563478,16.3158261 14.1626087,15.2947826 C13.1634783,16.4337391 11.6864348,17.5753043 10.0179131,18.072 C8.96973914,18.3834783 8.02486957,18.5024348 7.03669566,18.3005217 C6.05843477,18.1001739 5.33791305,17.6420869 4.91791305,17.1829565 C4.704,16.9486957 4.45826086,16.6507826 4.28034783,16.2965217 C4.29704348,16.3413913 4.30852174,16.368 4.30852174,16.368 C4.30852174,16.368 4.20626086,16.1916522 4.128,15.9109565 C4.08782609,15.7753043 4.06069566,15.6339131 4.04973914,15.4857391 C4.04139131,15.3886957 4.03930434,15.2864348 4.04504348,15.18 C4.03617391,14.9994783 4.04347826,14.8100869 4.08417391,14.616 C4.18226086,14.1417391 4.38469566,13.5892174 4.90852174,13.0763478 C6.05843477,11.9504348 7.59860869,11.8899131 8.39634783,11.8946087 C9.57808695,11.9013913 11.6316522,12.4184348 13.3606957,13.0299131 C13.8396522,12.0099131 14.1469565,10.9189565 14.3452174,10.1916522 L7.15565217,10.1916522 L7.15565217,9.41426086 L10.8474783,9.41426086 L10.8474783,7.85947826 L6.37826086,7.85947826 L6.37826086,7.08208695 L10.8474783,7.08208695 L10.8474783,5.52782609 C10.8474783,5.31443477 10.8897391,5.13913043 11.2361739,5.13913043 L12.9850435,5.13913043 L12.9850435,7.08208695 L17.8434783,7.08208695 L17.8434783,7.85947826 L12.9850435,7.85947826 L12.9850435,9.41426086 L16.8714783,9.41426086 C16.8714783,9.41426086 16.4812174,11.5899131 15.2608696,13.7342609 C17.9692174,14.7015652 21.7794783,16.1916522 23.0452174,16.6893913 Z" id="Shape"></path>
                </g>
            </g>
        </g>
    </g>
</svg>