<?xml version="1.0" encoding="UTF-8"?>
<svg width="12px" height="12px" viewBox="0 0 12 12" version="1.1" xmlns="http://www.w3.org/2000/svg" xmlns:xlink="http://www.w3.org/1999/xlink">
    <!-- Generator: Sketch 48.2 (47327) - http://www.bohemiancoding.com/sketch -->
    <title>添加icon</title>
    <desc>Created with Sketch.</desc>
    <defs></defs>
    <g id="5商品详情页-商品（选择规格" stroke="none" stroke-width="1" fill="none" fill-rule="evenodd" transform="translate(-108.000000, -492.000000)">
        <g id="选择规格" transform="translate(0.000000, 167.000000)" fill="#444444" fill-rule="nonzero">
            <g id="Group-10" transform="translate(15.000000, 316.000000)">
                <g id="添加icon" transform="translate(90.000000, 6.000000)">
                    <path d="M14.3108887,8.31088872 L9.68911128,8.31088872 L9.68911128,3.68911128 C9.68911128,3.30853809 9.38057319,3 9,3 C8.61942681,3 8.31088872,3.30853809 8.31088872,3.68911128 L8.31088872,8.31088872 L3.68911128,8.31088872 C3.30853809,8.31088872 3,8.61942681 3,9 C3,9.38057319 3.30853809,9.68911128 3.68911128,9.68911128 L8.31088872,9.68911128 L8.31088872,14.3108887 C8.31088872,14.6914619 8.61942681,15 9,15 C9.38057319,15 9.68911128,14.6914619 9.68911128,14.3108887 L9.68911128,9.68908831 L14.3108887,9.68908831 C14.6914619,9.68908831 15,9.38057319 15,8.99997704 C15,8.61938089 14.6914849,8.31088872 14.3108887,8.31088872 Z" id="Shape"></path>
                </g>
            </g>
        </g>
    </g>
</svg>