<?xml version="1.0" encoding="UTF-8"?>
<svg width="16px" height="16px" viewBox="0 0 16 16" version="1.1" xmlns="http://www.w3.org/2000/svg" xmlns:xlink="http://www.w3.org/1999/xlink">
    <!-- Generator: Sketch 48.2 (47327) - http://www.bohemiancoding.com/sketch -->
    <title>清除icon</title>
    <desc>Created with Sketch.</desc>
    <defs></defs>
    <g id="12新增地址-2" stroke="none" stroke-width="1" fill="none" fill-rule="evenodd" transform="translate(-344.000000, -143.000000)" fill-opacity="0.3">
        <g id="Group-2-Copy" transform="translate(0.000000, 72.000000)" fill="#000000" fill-rule="nonzero">
            <g id="Group-Copy" transform="translate(15.000000, 68.000000)">
                <g id="清除icon" transform="translate(329.000000, 3.000000)">
                    <path d="M13.656625,2.343375 C16.781,5.46725 16.781,10.53275 13.657125,13.657 C12.095,15.21875 10.04775,15.999625 8.00025,15.999625 C5.953,15.999625 3.905375,15.21875 2.343125,13.6565 C-0.78075,10.532625 -0.78075,5.467125 2.343125,2.34325 C3.90525,0.781125 5.9525,0.00025 7.99975,0.00025 C10.047125,0.00025 12.094875,0.781125 13.656625,2.343375 Z M10.689875,5.310625 C10.6016986,5.2223775 10.482063,5.1727946 10.3573125,5.1727946 C10.232562,5.1727946 10.1129264,5.2223775 10.02475,5.310625 L8,7.335 L5.975375,5.310625 C5.791625,5.126875 5.494,5.126875 5.31025,5.310625 C5.1265,5.494375 5.1265,5.792 5.31025,5.97575 L7.334875,8 L5.31025,10.02425 C5.2220101,10.1124051 5.1724303,10.2320199 5.1724303,10.35675 C5.1724303,10.4814801 5.2220101,10.6010949 5.31025,10.68925 C5.39836403,10.7776344 5.51807172,10.8272539 5.642875,10.827125 C5.763125,10.827125 5.8835,10.78125 5.975375,10.68925 L8,8.665 L10.024625,10.68925 C10.116375,10.781125 10.23675,10.827125 10.357125,10.827125 C10.4775,10.827125 10.597875,10.78125 10.68975,10.68925 C10.7779899,10.6010949 10.8275697,10.4814801 10.8275697,10.35675 C10.8275697,10.2320199 10.7779899,10.1124051 10.68975,10.02425 L8.665125,8 L10.68975,5.97575 C10.7779834,5.8875739 10.8275676,5.76795377 10.8275911,5.64321339 C10.8276145,5.51847302 10.7780753,5.39883426 10.689875,5.310625 Z" id="Shape"></path>
                </g>
            </g>
        </g>
    </g>
</svg>