<?xml version="1.0" encoding="UTF-8"?>
<svg width="18px" height="18px" viewBox="0 0 18 18" version="1.1" xmlns="http://www.w3.org/2000/svg" xmlns:xlink="http://www.w3.org/1999/xlink">
    <!-- Generator: Sketch 48.2 (47327) - http://www.bohemiancoding.com/sketch -->
    <title>编辑icon</title>
    <desc>Created with Sketch.</desc>
    <defs></defs>
    <g id="10收货地址2" stroke="none" stroke-width="1" fill="none" fill-rule="evenodd" transform="translate(-280.000000, -197.000000)">
        <g id="Group-Copy" transform="translate(-60.000000, 158.000000)" fill="#B9B9B9" fill-rule="nonzero" stroke="#B9B9B9" stroke-width="0.4">
            <g id="编辑icon" transform="translate(338.000000, 37.000000)">
                <path d="M17.5,19 L4.5,19 C3.65,19 3,18.35 3,17.5 L3,4.5 C3,3.65 3.65,3 4.5,3 L11,3 C11.3,3 11.5,3.2 11.5,3.5 C11.5,3.8 11.3,4 11,4 L4.5,4 C4.2,4 4,4.2 4,4.5 L4,17.5 C4,17.8 4.2,18 4.5,18 L17.5,18 C17.8,18 18,17.8 18,17.5 L18,11 C18,10.7 18.2,10.5 18.5,10.5 C18.8,10.5 19,10.7 19,11 L19,17.5 C19,18.35 18.35,19 17.5,19 Z" id="Shape"></path>
                <path d="M11.5,11 C11.35,11 11.25,10.95 11.15,10.85 C10.95,10.65 10.95,10.35 11.15,10.15 L18.15,3.15 C18.35,2.95 18.65,2.95 18.85,3.15 C19.05,3.35 19.05,3.65 18.85,3.85 L11.85,10.85 C11.75,10.95 11.65,11 11.5,11 Z" id="Shape"></path>
            </g>
        </g>
    </g>
</svg>