<?xml version="1.0" encoding="UTF-8"?>
<svg width="18px" height="18px" viewBox="0 0 18 18" version="1.1" xmlns="http://www.w3.org/2000/svg" xmlns:xlink="http://www.w3.org/1999/xlink">
    <!-- Generator: Sketch 48.2 (47327) - http://www.bohemiancoding.com/sketch -->
    <title>购物车icon</title>
    <desc>Created with Sketch.</desc>
    <defs></defs>
    <g id="1卓越优选-办公特供" stroke="none" stroke-width="1" fill="none" fill-rule="evenodd" transform="translate(-342.000000, -33.000000)">
        <g id="Group-3" fill="#333333" fill-rule="nonzero">
            <g id="购物车icon" transform="translate(340.000000, 31.000000)">
                <g id="购物车">
                    <g transform="translate(2.000000, 2.000000)" id="Shape">
                        <path d="M3.3804878,15.7346341 C3.3804878,16.9709268 4.392,17.982439 5.62829268,17.982439 C6.86458537,17.982439 7.87609756,16.9709268 7.87609756,15.7346341 C7.87609756,14.4983415 6.86458537,13.4868293 5.62829268,13.4868293 C4.392,13.4868293 3.3804878,14.4983415 3.3804878,15.7346341 Z M5.62829268,14.6107317 C6.24643902,14.6107317 6.75219512,15.1164878 6.75219512,15.7346341 C6.75219512,16.3527805 6.24643902,16.8585366 5.62829268,16.8585366 C5.01014634,16.8585366 4.50439024,16.3527805 4.50439024,15.7346341 C4.50439024,15.1164878 5.01014634,14.6107317 5.62829268,14.6107317 Z M10.1239024,15.7346341 C10.1239024,16.9709268 11.1354146,17.982439 12.3717073,17.982439 C13.608,17.982439 14.6195122,16.9709268 14.6195122,15.7346341 C14.6195122,14.4983415 13.608,13.4868293 12.3717073,13.4868293 C11.1354146,13.4868293 10.1239024,14.4983415 10.1239024,15.7346341 Z M12.3717073,14.6107317 C12.9898537,14.6107317 13.4956098,15.1164878 13.4956098,15.7346341 C13.4956098,16.3527805 12.9898537,16.8585366 12.3717073,16.8585366 C11.753561,16.8585366 11.2478049,16.3527805 11.2478049,15.7346341 C11.2478049,15.1164878 11.753561,14.6107317 12.3717073,14.6107317 Z M4.50439024,12.3629268 C3.8862439,12.3629268 3.3804878,11.8571707 3.3804878,11.2390244 L16.3053659,10.115122 C16.3053659,10.115122 17.9912195,3.3155122 17.9912195,2.8097561 C17.9912195,2.47258537 17.766439,2.24780488 17.4292683,2.24780488 L3.3804878,2.24780488 L3.3804878,1.12390244 L3.94243902,1.12390244 C4.27960976,1.12390244 4.50439024,0.899121951 4.50439024,0.56195122 C4.50439024,0.224780488 4.27960976,0 3.94243902,0 L0.570731707,0 C0.233560976,0 0.0087804878,0.224780488 0.0087804878,0.56195122 C0.0087804878,0.899121951 0.233560976,1.12390244 0.570731707,1.12390244 L2.25658537,1.12390244 L2.25658537,11.2390244 C2.25658537,12.4753171 3.26809756,13.4868293 4.50439024,13.4868293 C8.95337298,13.4868293 13.2616657,13.4868293 17.4292683,13.4868293 C17.7596106,13.4868293 17.9912195,13.2313856 17.9912195,12.9468459 C17.9912195,12.6623063 17.811675,12.3629268 17.4292683,12.3629268 C13.2734341,12.3629268 8.96514143,12.3629268 4.50439024,12.3629268 Z M3.3804878,3.37170732 L16.8673171,3.37170732 L15.4062439,9.10360976 L3.3804878,10.115122 L3.3804878,3.37170732 Z"></path>
                    </g>
                </g>
            </g>
        </g>
    </g>
</svg>