<?xml version="1.0" encoding="UTF-8"?>
<svg width="18px" height="18px" viewBox="0 0 18 18" version="1.1" xmlns="http://www.w3.org/2000/svg" xmlns:xlink="http://www.w3.org/1999/xlink">
    <!-- Generator: Sketch 48.2 (47327) - http://www.bohemiancoding.com/sketch -->
    <title>选中（红色</title>
    <desc>Created with Sketch.</desc>
    <defs></defs>
    <g id="15购物车1" stroke="none" stroke-width="1" fill="none" fill-rule="evenodd" transform="translate(-14.000000, -89.000000)">
        <g id="Group-4" transform="translate(0.000000, 72.000000)">
            <g id="选择-copy" transform="translate(15.000000, 18.000000)">
                <g id="选中（红色">
                    <path d="M8,16.5 C3.30557963,16.5 -0.5,12.6944204 -0.5,8 C-0.5,3.30557963 3.30557963,-0.5 8,-0.5 C12.6944204,-0.5 16.5,3.30557963 16.5,8 C16.5,12.6944204 12.6944204,16.5 8,16.5 Z M6.98112745,9.69816993 L4.77691958,7.52632853 C4.52777723,7.28098889 4.12730422,7.28372722 3.88197015,7.53284556 C3.63655825,7.7814178 3.63969451,8.1826549 3.88916,8.42768732 C5.66717329,10.1791497 6.55705143,11.0558399 6.5587944,11.0577578 C6.60356374,11.1005199 6.63244472,11.1188409 6.68389088,11.1461559 C6.70014979,11.1585768 6.70563816,11.1613133 6.7662704,11.1915452 C6.84123059,11.2207607 6.91971801,11.2357546 6.99842922,11.2357546 C7.08258693,11.2357546 7.16615096,11.2188778 7.24379356,11.1857793 C7.30475447,11.1534239 7.31010019,11.1505866 7.32605444,11.1375891 C7.3793675,11.1074947 7.40903918,11.0877154 7.45270498,11.0427786 L12.1281231,6.06547333 C12.3678669,5.81249819 12.3553275,5.41166318 12.1003622,5.171293 C11.8457177,4.93249364 11.4447971,4.94463654 11.2060804,5.19981716 L6.98112745,9.69816993 Z" id="Oval" fill="#FF5656" fill-rule="nonzero"></path>
                    <g id="打钩" transform="translate(3.000000, 4.300000)"></g>
                </g>
            </g>
        </g>
    </g>
</svg>