<?xml version="1.0" encoding="UTF-8"?>
<svg width="22px" height="22px" viewBox="0 0 22 22" version="1.1" xmlns="http://www.w3.org/2000/svg" xmlns:xlink="http://www.w3.org/1999/xlink">
    <!-- Generator: Sketch 48.2 (47327) - http://www.bohemiancoding.com/sketch -->
    <title>选中</title>
    <desc>Created with Sketch.</desc>
    <defs></defs>
    <g id="14在线支付" stroke="none" stroke-width="1" fill="none" fill-rule="evenodd" transform="translate(-339.000000, -178.000000)">
        <g id="Group-Copy-2" transform="translate(15.000000, 177.000000)">
            <g id="Group-Copy-4">
                <g id="选择" transform="translate(325.000000, 2.000000)">
                    <g id="选中">
                        <path d="M10,20.5 C4.20101013,20.5 -0.5,15.7989899 -0.5,10 C-0.5,4.20101013 4.20101013,-0.5 10,-0.5 C15.7989899,-0.5 20.5,4.20101013 20.5,10 C20.5,15.7989899 15.7989899,20.5 10,20.5 Z M8.72848803,12.2300508 L5.91851015,9.46133446 C5.63659091,9.18371821 5.18348439,9.18681644 4.90590002,9.46868253 C4.62822639,9.74993201 4.63177472,10.2038874 4.91400546,10.4811029 C7.13667792,12.6705681 8.24918468,13.7665884 8.25152576,13.769164 C8.30088247,13.8162983 8.33325207,13.8364527 8.39549181,13.8693424 C8.41615426,13.8851688 8.41899434,13.8865844 8.4853609,13.9196642 C8.57015953,13.9527138 8.65904087,13.9696933 8.74803652,13.9696933 C8.84318083,13.9696933 8.93762852,13.9506183 9.02533092,13.9132315 C9.09202796,13.8778561 9.09486761,13.87635 9.1199845,13.8570775 C9.18114218,13.8225802 9.21414785,13.8006355 9.26284821,13.7504403 L15.1054879,7.53049353 C15.3767788,7.24422975 15.3625926,6.79075614 15.0741492,6.51882402 C14.7860245,6.24862775 14.3323892,6.26236725 14.0623709,6.55100817 L8.72848803,12.2300508 Z" id="Oval" fill="#1478C8" fill-rule="nonzero"></path>
                        <g id="打钩" transform="translate(4.000000, 5.625000)"></g>
                    </g>
                </g>
            </g>
        </g>
    </g>
</svg>