<?xml version="1.0" encoding="UTF-8"?>
<svg width="36px" height="36px" viewBox="0 0 36 36" version="1.1" xmlns="http://www.w3.org/2000/svg" xmlns:xlink="http://www.w3.org/1999/xlink">
    <!-- Generator: Sketch 48.2 (47327) - http://www.bohemiancoding.com/sketch -->
    <title>选择优惠券（未选</title>
    <desc>Created with Sketch.</desc>
    <defs></defs>
    <g id="13优惠券-优惠码" stroke="none" stroke-width="1" fill="none" fill-rule="evenodd" transform="translate(-327.000000, -139.000000)">
        <g id="优惠券" transform="translate(12.000000, 139.000000)">
            <g id="选择优惠券" transform="translate(315.000000, 0.000000)">
                <g id="选择优惠券（未选">
                    <path d="M0,0 L33,0 C34.6568542,-3.04359188e-16 36,1.34314575 36,3 L36,36 L0,0 Z M22.9811275,12.3981699 L20.7769196,10.2263285 C20.5277772,9.98098889 20.1273042,9.98372722 19.8819702,10.2328456 C19.6365583,10.4814178 19.6396945,10.8826549 19.88916,11.1276873 C21.6671733,12.8791497 22.5570514,13.7558399 22.5587944,13.7577578 C22.6035637,13.8005199 22.6324447,13.8188409 22.6838909,13.8461559 C22.7001498,13.8585768 22.7056382,13.8613133 22.7662704,13.8915452 C22.8412306,13.9207607 22.919718,13.9357546 22.9984292,13.9357546 C23.0825869,13.9357546 23.166151,13.9188778 23.2437936,13.8857793 C23.3047545,13.8534239 23.3101002,13.8505866 23.3260544,13.8375891 C23.3793675,13.8074947 23.4090392,13.7877154 23.452705,13.7427786 L28.1281231,8.76547333 C28.3678669,8.51249819 28.3553275,8.11166318 28.1003622,7.871293 C27.8457177,7.63249364 27.4447971,7.64463654 27.2060804,7.89981716 L22.9811275,12.3981699 Z" id="Rectangle-2" fill="#E6E6E6"></path>
                    <g id="打钩" transform="translate(19.000000, 7.000000)"></g>
                </g>
            </g>
        </g>
    </g>
</svg>