<?xml version="1.0" encoding="UTF-8"?>
<svg width="20px" height="22px" viewBox="0 0 20 22" version="1.1" xmlns="http://www.w3.org/2000/svg" xmlns:xlink="http://www.w3.org/1999/xlink">
    <!-- Generator: Sketch 48.2 (47327) - http://www.bohemiancoding.com/sketch -->
    <title>通讯录icon</title>
    <desc>Created with Sketch.</desc>
    <defs></defs>
    <g id="12新增地址-1" stroke="none" stroke-width="1" fill="none" fill-rule="evenodd" transform="translate(-338.000000, -87.000000)">
        <g id="Group-2-Copy" transform="translate(0.000000, 72.000000)">
            <g id="Group" transform="translate(15.000000, 15.000000)">
                <g id="通讯录icon" transform="translate(323.000000, 0.000000)">
                    <rect id="Rectangle" x="0" y="0" width="22" height="22"></rect>
                    <path d="M3.38095238,5.67923213 C3.38095238,5.94222487 3.16775464,6.15542261 2.9047619,6.15542261 C2.64176917,6.15542261 2.42857143,5.94222487 2.42857143,5.67923213 L2.42857143,2.42857143 C2.42857143,1.63959321 3.06816464,1 3.85714286,1 L18.1428571,1 C18.9318354,1 19.5714286,1.63959321 19.5714286,2.42857143 L19.5714286,19.5714286 C19.5714286,20.3604068 18.9318354,21 18.1428571,21 L3.85714286,21 C3.06816464,21 2.42857143,20.3604068 2.42857143,19.5714286 L2.42857143,16.7342541 C2.42857143,16.4712614 2.64176917,16.2580636 2.9047619,16.2580636 C3.16775464,16.2580636 3.38095238,16.4712614 3.38095238,16.7342541 L3.38095238,19.5714286 C3.38095238,19.8344213 3.59415012,20.047619 3.85714286,20.047619 L18.1428571,20.047619 C18.4058499,20.047619 18.6190476,19.8344213 18.6190476,19.5714286 L18.6190476,2.42857143 C18.6190476,2.16557869 18.4058499,1.95238095 18.1428571,1.95238095 L3.85714286,1.95238095 C3.59415012,1.95238095 3.38095238,2.16557869 3.38095238,2.42857143 L3.38095238,5.67923213 Z M3.38095238,13.519099 C3.38095238,13.7820917 3.16775464,13.9952894 2.9047619,13.9952894 C2.64176917,13.9952894 2.42857143,13.7820917 2.42857143,13.519099 L2.42857143,9.20045765 C2.42857143,8.93746491 2.64176917,8.72426718 2.9047619,8.72426718 C3.16775464,8.72426718 3.38095238,8.93746491 3.38095238,9.20045765 L3.38095238,13.519099 Z M1.47619048,7.19047619 L4.33333333,7.19047619 C4.59632607,7.19047619 4.80952381,7.40367393 4.80952381,7.66666667 C4.80952381,7.9296594 4.59632607,8.14285714 4.33333333,8.14285714 L1.47619048,8.14285714 C1.21319774,8.14285714 1,7.9296594 1,7.66666667 C1,7.40367393 1.21319774,7.19047619 1.47619048,7.19047619 Z M1.47619048,14.8095238 L4.33333333,14.8095238 C4.59632607,14.8095238 4.80952381,15.0227215 4.80952381,15.2857143 C4.80952381,15.548707 4.59632607,15.7619048 4.33333333,15.7619048 L1.47619048,15.7619048 C1.21319774,15.7619048 1,15.548707 1,15.2857143 C1,15.0227215 1.21319774,14.8095238 1.47619048,14.8095238 Z M11,10.5238095 C9.42204357,10.5238095 8.14285714,9.24462309 8.14285714,7.66666667 C8.14285714,6.08871024 9.42204357,4.80952381 11,4.80952381 C12.5779564,4.80952381 13.8571429,6.08871024 13.8571429,7.66666667 C13.8571429,9.24462309 12.5779564,10.5238095 11,10.5238095 Z M11,9.57142857 C12.051971,9.57142857 12.9047619,8.71863762 12.9047619,7.66666667 C12.9047619,6.61469571 12.051971,5.76190476 11,5.76190476 C9.94802905,5.76190476 9.0952381,6.61469571 9.0952381,7.66666667 C9.0952381,8.71863762 9.94802905,9.57142857 11,9.57142857 Z M7.19047619,16.7142857 L6.23809524,16.7142857 L6.23809524,13.8571429 C6.23809524,12.5421792 7.30408393,11.4761905 8.61904762,11.4761905 L13.3809524,11.4761905 C14.6959161,11.4761905 15.7619048,12.5421792 15.7619048,13.8571429 L15.7619048,16.7142857 L14.8095238,16.7142857 L14.8095238,13.8571429 C14.8095238,13.0681646 14.1699306,12.4285714 13.3809524,12.4285714 L8.61904762,12.4285714 C7.83006941,12.4285714 7.19047619,13.0681646 7.19047619,13.8571429 L7.19047619,16.7142857 Z" id="Combined-Shape" stroke="#1478C8" stroke-width="0.2" fill="#1478C8" fill-rule="nonzero"></path>
                </g>
            </g>
        </g>
    </g>
</svg>