<?xml version="1.0" encoding="UTF-8"?>
<svg width="42px" height="18px" viewBox="0 0 42 18" version="1.1" xmlns="http://www.w3.org/2000/svg" xmlns:xlink="http://www.w3.org/1999/xlink">
    <!-- Generator: Sketch 48.2 (47327) - http://www.bohemiancoding.com/sketch -->
    <title>默认</title>
    <desc>Created with Sketch.</desc>
    <defs>
        <path d="M9,0 L33,0 C37.9705627,-9.13077564e-16 42,4.02943725 42,9 L42,9 C42,13.9705627 37.9705627,18 33,18 L9,18 C4.02943725,18 6.08718376e-16,13.9705627 0,9 L0,9 C-6.08718376e-16,4.02943725 4.02943725,9.13077564e-16 9,0 Z M15.687,10.624 L15.687,11.251 C14.576,11.361 12.915,11.46 10.715,11.537 L10.627,10.866 C11.408,10.855 12.134,10.833 12.794,10.811 L12.794,9.865 L10.814,9.865 L10.814,9.227 L12.794,9.227 L12.794,8.325 L10.759,8.325 L10.759,4.42 L15.588,4.42 L15.588,8.325 L13.498,8.325 L13.498,9.227 L15.5,9.227 L15.5,9.865 L13.498,9.865 L13.498,10.778 C14.334,10.734 15.06,10.69 15.687,10.624 Z M10.968,11.944 L11.628,12.021 C11.562,12.824 11.419,13.539 11.177,14.155 L10.517,13.946 C10.759,13.363 10.902,12.692 10.968,11.944 Z M12.761,12.021 C12.871,12.483 12.948,13.132 12.992,13.946 L12.321,14.023 C12.299,13.187 12.233,12.549 12.145,12.087 L12.761,12.021 Z M15.203,11.801 C15.456,12.395 15.654,12.945 15.797,13.451 C16.776,11.801 17.337,9.898 17.491,7.753 L16.105,7.753 L16.105,6.994 L17.524,6.994 C17.546,5.707 17.557,4.728 17.557,4.046 L18.316,4.046 C18.316,4.86 18.305,5.85 18.294,6.994 L20.23,6.994 L20.23,7.753 L18.338,7.753 C18.679,10.25 19.427,12.175 20.582,13.528 L20.043,14.122 C19.064,12.879 18.393,11.317 18.041,9.436 C17.689,11.284 17.084,12.857 16.226,14.133 L15.72,13.572 C15.731,13.55 15.742,13.528 15.753,13.517 L15.225,13.715 C15.071,13.11 14.873,12.527 14.642,11.955 L15.203,11.801 Z M13.982,11.9 C14.18,12.428 14.345,13.022 14.499,13.704 L13.861,13.869 C13.74,13.253 13.586,12.659 13.41,12.087 L13.982,11.9 Z M19.24,4.409 C19.724,5.025 20.087,5.575 20.34,6.037 L19.79,6.433 C19.526,5.927 19.163,5.355 18.701,4.739 L19.24,4.409 Z M14.95,7.709 L14.95,5.036 L13.443,5.036 L13.443,7.709 L14.95,7.709 Z M12.871,7.709 L12.871,5.036 L11.397,5.036 L11.397,7.709 L12.871,7.709 Z M14.136,5.608 L14.554,5.707 C14.488,6.235 14.367,6.752 14.191,7.258 L13.773,7.115 C13.949,6.642 14.07,6.136 14.136,5.608 Z M12.123,5.652 C12.288,6.092 12.431,6.587 12.563,7.148 L12.156,7.258 C12.035,6.752 11.881,6.257 11.705,5.784 L12.123,5.652 Z M27.897,4.068 L28.711,4.068 C28.711,4.992 28.678,5.861 28.612,6.653 C29.195,9.469 30.207,11.713 31.648,13.363 L31.076,14.023 C29.899,12.527 29.008,10.679 28.392,8.501 C28.337,8.809 28.282,9.095 28.227,9.381 C27.809,11.273 26.874,12.835 25.411,14.045 L24.872,13.396 C26.148,12.318 27.006,10.965 27.424,9.326 C27.732,7.951 27.897,6.202 27.897,4.068 Z M22.782,4.123 C23.53,4.684 24.157,5.245 24.663,5.817 L24.124,6.367 C23.662,5.828 23.024,5.256 22.232,4.662 L22.782,4.123 Z M21.495,7.379 L23.871,7.379 L23.871,12.186 C24.267,11.856 24.696,11.482 25.147,11.053 L25.345,11.867 C24.663,12.516 23.937,13.099 23.167,13.605 L22.859,12.901 C23.024,12.769 23.112,12.604 23.112,12.428 L23.112,8.138 L21.495,8.138 L21.495,7.379 Z" id="path-1"></path>
    </defs>
    <g id="10收货地址-1" stroke="none" stroke-width="1" fill="none" fill-rule="evenodd" transform="translate(-197.000000, -89.000000)">
        <g id="Group" transform="translate(0.000000, 72.000000)">
            <g id="默认" transform="translate(197.000000, 17.000000)">
                <g id="Rectangle-2">
                    <use fill="#FF5656" fill-rule="evenodd" xlink:href="#path-1"></use>
                    <path stroke="#FF5656" stroke-width="1" d="M9,0.5 C4.30557963,0.5 0.5,4.30557963 0.5,9 C0.5,13.6944204 4.30557963,17.5 9,17.5 L33,17.5 C37.6944204,17.5 41.5,13.6944204 41.5,9 C41.5,4.30557963 37.6944204,0.5 33,0.5 L9,0.5 Z M10.6922908,10.365 L10.314,10.365 L10.314,8.825 L10.259,8.825 L10.259,3.92 L16.088,3.92 L16.088,8.825 L16,8.825 L16,10.0882902 L16.187,10.068606 L16.187,11.7039398 L15.7362641,11.7485671 C14.5812922,11.8629208 12.8859857,11.9613217 10.7324893,12.036694 L10.2783367,12.0525894 L10.0581888,10.3739618 L10.6199584,10.3660496 C10.6441167,10.3657093 10.6682233,10.3653595 10.6922908,10.365 Z M11.0789431,12.4603346 L11.4077838,12.4986994 C11.4150001,12.447767 11.4218318,12.3963876 11.4282825,12.3445582 L11.268153,12.1490815 L11.1000903,12.2859137 C11.0934995,12.3447902 11.0864513,12.4029288 11.0789431,12.4603346 Z M10.8614527,13.530606 C10.8404273,13.6029005 10.8183076,13.6735899 10.7950854,13.7426922 L10.8672965,13.8979536 L11.1124633,13.7810649 C11.1296873,13.7299374 11.1463252,13.6782176 11.1623826,13.6259005 L10.8614527,13.530606 Z M10.5151361,11.3877746 L12.1659027,11.580364 L12.1263196,12.0619578 C12.0546009,12.9345359 11.8973309,13.6888495 11.6423757,14.3378262 L11.4715188,14.7727349 L9.84611583,14.258024 L10.0552042,13.7543112 C10.2694683,13.2381294 10.4061337,12.6231349 10.4699351,11.9000531 L10.5151361,11.3877746 Z M12.4621514,13.5035209 C12.4673817,13.5712115 12.4723425,13.6404678 12.4770302,13.7112715 L12.6135884,13.8298675 L12.8060743,13.6019285 C12.8039228,13.5557196 12.8016227,13.5100243 12.7991754,13.4648461 L12.4621514,13.5035209 Z M12.7187922,12.528384 C12.6975307,12.3566272 12.6733477,12.1964826 12.6463807,12.0482903 L12.2745969,12.1368103 C12.3047015,12.2632495 12.3324079,12.4068658 12.3576056,12.5670825 L12.7187922,12.528384 Z M13.2474031,11.9051897 C13.3648528,12.3984783 13.4455209,13.0726338 13.4912711,13.9190124 L13.5166798,14.3890722 L11.8355372,14.5819902 L11.821173,14.0361533 C11.8010052,13.269774 11.742236,12.6446837 11.6538307,12.1805561 L11.5523228,11.6476394 L13.1454408,11.4769482 L13.2474031,11.9051897 Z M15.8977119,12.1835748 C16.4421938,10.998633 16.7911094,9.68853961 16.94452,8.253 L15.605,8.253 L15.605,6.494 L17.032176,6.494 C17.0487573,5.44718112 17.057,4.63419663 17.057,4.046 L17.057,3.546 L18.816,3.546 L18.816,4.046 C18.816,4.64785181 18.815599,4.74464162 18.7988261,6.494 L20.73,6.494 L20.73,8.253 L18.919818,8.253 C19.2790515,10.3848076 19.9629984,12.0327791 20.9622823,13.2033688 L21.2480145,13.5380837 L20.0160016,14.8958121 L19.650203,14.4313711 C18.9739825,13.5727991 18.4402441,12.5752741 18.0496645,11.4422805 C17.6917677,12.5559436 17.2220975,13.5476854 16.6409213,14.4119988 L16.2836048,14.9433925 L15.5480301,14.127864 L14.8780967,14.379089 L14.7404514,13.8383396 C14.5981394,13.2792566 14.4117765,12.720168 14.1783791,12.1422315 L13.9680836,11.6214999 L15.4918503,11.203211 L15.663012,11.605069 C15.7470354,11.8023413 15.825271,11.9951693 15.8977119,12.1835748 Z M13.636581,12.4248476 C13.647789,12.4588532 13.6589248,12.4932468 13.6699934,12.5280437 L14.0265455,12.4114786 C14.0168702,12.3769565 14.0070858,12.3424224 13.9971924,12.3078751 L13.7570294,12.1924468 L13.636581,12.4248476 Z M13.899218,13.3426655 C13.9133346,13.3989377 13.9273956,13.4561597 13.9414141,13.5143701 L14.124024,13.6293364 L14.2713647,13.3878373 C14.2615327,13.3432913 14.2515155,13.2987435 14.2413124,13.2541928 L13.899218,13.3426655 Z M14.4501646,11.7244383 C14.6489313,12.2544829 14.8204894,12.8577032 14.9867205,13.5938696 L15.0934894,14.0667033 L13.4726207,14.4858935 L13.3703756,13.9653727 C13.2574806,13.3906346 13.1111012,12.8157627 12.9321105,12.2340429 L12.7876144,11.7644307 L14.2819606,11.2758944 L14.4501646,11.7244383 Z M19.0078124,4.92627582 C19.0446783,4.97483204 19.0808511,5.02307657 19.1163222,5.07098978 L19.4229286,4.88327156 C19.4064617,4.85970843 19.3898642,4.83609903 19.3731367,4.81244483 L19.0409913,4.75278437 L19.0078124,4.92627582 Z M19.6792196,5.89664504 C19.7216598,5.96529466 19.7622013,6.03280945 19.8008104,6.09911069 L19.9346107,6.13085479 L20.0101108,5.7977346 C19.9912113,5.76525929 19.9720061,5.73264112 19.9524977,5.69988478 L19.6792196,5.89664504 Z M19.6331592,4.10008922 C20.1112075,4.70851437 20.4974172,5.28347325 20.7785481,5.79684269 L20.9908423,6.18451038 L19.613713,7.17604348 L19.3467076,6.664283 C19.088172,6.16875647 18.7353192,5.61809231 18.301,5.039 L17.9713444,4.59945923 L19.3583182,3.75029162 L19.6331592,4.10008922 Z M14.45,7.209 L14.45,5.536 L13.943,5.536 L13.943,7.209 L14.45,7.209 Z M12.371,7.209 L12.371,5.536 L11.897,5.536 L11.897,7.209 L12.371,7.209 Z M13.7737311,7.11286299 L14.191,7.258 L14.3528438,6.78491801 L13.9348438,6.64191801 L13.7737311,7.11286299 Z M14.125246,5.65340575 L14.0207668,6.09454014 L14.4387668,6.19354014 L14.554,5.707 L14.125246,5.65340575 Z M13.70898,4.99303146 L15.1057844,5.32385357 L15.0501389,5.76901737 C14.9797783,6.33190218 14.8507585,6.8831688 14.6632484,7.42226031 L14.4998257,7.89210052 L13.1253221,7.42187561 L13.3043891,6.94063314 C13.4657007,6.50710814 13.578215,6.03915077 13.6398611,5.54598263 L13.70898,4.99303146 Z M12.1523827,7.24461584 L12.563,7.148 L12.4325455,6.6653183 L12.0255455,6.7753183 L12.1523827,7.24461584 Z M11.7119882,5.80612941 L11.8555657,6.26079133 L12.2735657,6.12879133 L12.123,5.652 L11.7119882,5.80612941 Z M12.5911646,5.47643828 C12.7598734,5.92632843 12.9091689,6.43618662 13.0497086,7.03348033 L13.1605242,7.50444665 L11.7894482,7.87500772 L11.6697106,7.37428661 C11.5568712,6.90241301 11.4109386,6.42746883 11.2363891,5.95836686 L11.0530159,5.46555134 L12.4246515,5.03240326 L12.5911646,5.47643828 Z M29.1162348,6.62168097 C29.6859985,9.33042695 30.659191,11.4706588 32.0245992,13.0341033 L32.3107375,13.3617426 L31.057365,14.8079417 L30.6830414,14.3321659 C29.7933717,13.2013707 29.0596958,11.8761603 28.4805288,10.3613103 C27.962644,11.9810208 27.0437552,13.343454 25.7296653,14.4302953 L25.3451551,14.7483112 L24.1705819,13.3340291 L24.5493242,13.0140572 C25.7537551,11.9965207 26.5497791,10.7305858 26.9360909,9.21670835 C27.2400828,7.85960131 27.397,6.13621791 27.397,4.068 L27.397,3.568 L29.211,3.568 L29.211,4.068 C29.211,4.97979097 29.1792799,5.83725395 29.1162348,6.62168097 Z M22.5527445,4.57634011 C22.6444394,4.6458461 22.7340047,4.71519268 22.8214605,4.7844001 L22.99153,4.61773201 C22.9423195,4.57834711 22.8924103,4.53885433 22.8418057,4.49925507 L22.5489329,4.51858285 L22.5527445,4.57634011 Z M23.9714485,5.80830616 C24.0442349,5.88254194 24.1146495,5.9567321 24.1827181,6.03090261 L24.2914059,6.03452713 L24.2971284,5.81037537 C24.2449413,5.75416276 24.1910661,5.69766698 24.1355135,5.64089298 L23.9714485,5.80830616 Z M23.082,3.723 C23.8648574,4.31014307 24.5134361,4.89329497 25.0374983,5.48571306 L25.345984,5.8344361 L24.0993384,7.1065235 L23.7443717,6.69239569 C23.3127601,6.18884887 22.704235,5.64117628 21.932,5.062 L21.4660628,4.71254707 L22.7386061,3.46545458 L23.082,3.723 Z M24.3710003,11.0909008 C24.5160985,10.9596132 24.6594959,10.8266476 24.8023931,10.690721 L25.4285732,10.0950862 L25.8991886,12.0298384 L25.6896817,12.2292079 C24.9773866,12.907037 24.2273686,13.5064832 23.4415889,14.0228527 L22.9464152,14.3482526 L22.2472263,12.7501065 L22.5466525,12.5105656 C22.5984267,12.4691462 22.612,12.443751 22.612,12.428 L22.612,8.638 L20.995,8.638 L20.995,6.879 L24.371,6.879 L24.371,11.0909012 Z"></path>
                </g>
            </g>
        </g>
    </g>
</svg>